<?xml version="1.0" encoding="UTF-8"?>
<svg width="68pt" height="68pt" viewBox="0 0 68 68" xmlns="http://www.w3.org/2000/svg">
<g transform="translate(0 68) scale(.1 -.1)">
<path d="m0 340v-340h340 340v340 340h-340-340v-340zm331 239 38-30 11-37c5-20 10-54 10-74v-37l-52 24-53 25-55-1c-30 0-80-8-110-18l-55-18-3 25c-2 14-1 40 3 58l6 34 38 32c21 18 54 38 72 45l34 12 78-10 38-30zm209 19c24-13 53-35 64-50l20-28 4-60 4-61-109-109h-46c-25 0-49 4-52 10-3 5 3 27 14 49 11 21 23 56 27 78l6 38-25 78-25 77h37 37l44-22zm-282-260-22-43 1-80v-80l32-76-15-6c-27-10-85 5-120 32-19 14-43 44-54 65-35 68-23 125 37 182 36 34 67 47 121 47l42 1-22-42zm94-95 43-18h70 70l43 18c23 9 45 17 47 17 3 0 5-16 5-35 0-53-26-107-67-140l-37-29-52-1h-52l-43 31-44 32-24 46-23 45 6 26c4 14 8 25 11 25s24-8 47-17z"/>
</g>
<g transform="translate(0 68) scale(.1 -.1)" fill="#fefefe">
<path d="m172 618c-18-6-52-28-74-48l-42-37-4-66-4-67h10c5 0 38 9 72 20s81 20 104 20h41l53-25c30-14 58-25 63-25 12 0 11 86-1 132l-11 37-78 62-48 4c-26 2-63-1-81-7z"/>
<path d="m410 623c0-5 12-44 26-87l25-79-7-31c-4-17-16-50-27-72l-20-42 12-32h57 57l109 109-8 140-20 28c-11 15-40 38-64 51l-44 22h-48c-26 0-48-3-48-7z"/>
<path d="m160 379c-32-13-78-56-96-91-8-15-14-45-14-68v-41l20-39c11-21 36-51 56-66l35-27 55-5 54-4 5 14c3 8-2 32-11 54l-17 39v70 70l21 42c12 23 22 47 22 53v10l-52-1c-29 0-64-5-78-10z"/>
<path d="m284 244c-4-14-1-44 5-65l12-40 40-39c22-21 56-44 76-51l35-11 45 6 44 6 34 27c41 33 65 87 65 148v45h-15c-8 0-34-8-57-17l-43-18h-60-60l-43 18c-23 9-49 17-57 17h-15l-6-26z"/>
</g>
<g transform="translate(0 68) scale(.1 -.1)" fill="#bdbdbd">
<path d="m410 622c0-5 14-7 30-4 17 2 30 6 30 8s-13 4-30 4c-16 0-30-4-30-8z"/>
<path d="m600 555c7-9 15-13 17-11 7 7-7 26-19 26h-10l12-15z"/>
<path d="m620 521c0-6 4-13 10-16l10-6-6 15c-7 18-14 21-14 7z"/>
<path d="m51 474 1-19 5 13c3 7 2 16-1 19-3 4-6-2-5-13z"/>
<path d="m175 440-6-10 15 6c18 7 21 14 7 14-6 0-13-4-16-10z"/>
<path d="m391 414 1-19 5 13c3 7 2 16-1 19-3 4-6-2-5-13z"/>
<path d="m631 414 1-19 5 13c3 7 2 16-1 19-3 4-6-2-5-13z"/>
<path d="m220 386c0-2 16-6 35-8s35 0 35 4-16 8-35 8-35-2-35-4z"/>
<path d="m99 333-14-18 18 14c9 7 17 15 17 17 0 8-8 3-21-13z"/>
<path d="m495 290-40-7 35-1c19-1 42 3 50 8 16 11 14 11-45 0z"/>
<path d="m56 273-7-18 12 12c7 7 10 15 7 18s-9-2-12-12z"/>
<path d="m631 244 1-19 5 13c3 7 2 16-1 19-3 4-6-2-5-13z"/>
<path d="m75 133c8-18 18-33 20-33 10 0 4 16-16 40l-20 25 16-32z"/>
<path d="m260 91c0-6 4-13 10-16l10-6-6 15c-7 18-14 21-14 7z"/>
<path d="m160 56c0-2 7-7 16-10l15-6-6 10c-6 10-25 14-25 6z"/>
</g>
<g transform="translate(0 68) scale(.1 -.1)" fill="#ececec">
<path d="m190 620-15-10h12c6 0 15 5 18 10 8 12 4 12-15 0z"/>
<path d="m416 597c3-10 9-15 12-12s0 11-7 18l-12 12 7-18z"/>
<path d="m565 586c17-13 32-22 35-19 6 5-41 42-55 43-5 0 4-11 20-24z"/>
<path d="m105 580c-3-5-2-10 4-10 5 0 13 5 16 10 3 6 2 10-4 10-5 0-13-4-16-10z"/>
<path d="m375 529c10-35 23-45 18-15-3 15-10 29-15 32l-10 7 7-24z"/>
<path d="m456 467c3-10 9-15 12-12s0 11-7 18l-12 12 7-18z"/>
<path d="m50 460c0-7 3-10 7-7 3 4 3 10 0 14-4 3-7 0-7-7z"/>
<path d="m630 460c0-7 3-10 7-7 3 4 3 10 0 14-4 3-7 0-7-7z"/>
<path d="m105 420c-3-5-2-10 4-10 5 0 13 5 16 10 3 6 2 10-4 10-5 0-13-4-16-10z"/>
<path d="m145 370c-3-5-2-10 4-10 5 0 13 5 16 10 3 6 2 10-4 10-5 0-13-4-16-10z"/>
<path d="m245 299c-4-6-5-12-2-15 2-3 7 2 10 11 7 17 1 20-8 4z"/>
<path d="m235 239c-4-6-5-12-2-15 2-3 7 2 10 11 7 17 1 20-8 4z"/>
<path d="m377 239c7-7 15-10 18-7s-2 9-12 12l-18 7 12-12z"/>
<path d="m540 240-15-10h12c6 0 15 5 18 10 8 12 4 12-15 0z"/>
<path d="m52 220c0-14 2-19 5-12 2 6 2 18 0 25-3 6-5 1-5-13z"/>
<path d="m230 201c0-6 4-13 10-16l10-6-6 15c-7 18-14 21-14 7z"/>
<path d="m625 169c-4-6-5-12-2-15 2-3 7 2 10 11 7 17 1 20-8 4z"/>
<path d="m300 151c0-5 5-13 10-16 6-3 10-2 10 4 0 5-4 13-10 16-5 3-10 2-10-4z"/>
<path d="m410 56c0-2 7-7 16-10l15-6-6 10c-6 10-25 14-25 6z"/>
</g>
<g transform="translate(0 68) scale(.1 -.1)" fill="#7e7e7e">
<path d="m248 623c7-3 16-2 19 1 4 3-2 6-13 5l-19-1 13-5z"/>
<path d="m550 606c0-2 7-9 15-16l15-12v10c0 5-7 12-15 16-8 3-15 4-15 2z"/>
<path d="m360 556c0-2 7-9 15-16l15-13-6 17c-3 9-10 16-15 16s-9-2-9-4z"/>
<path d="m610 545c0-8 4-15 10-15 5 0 7 7 4 15-4 8-8 15-10 15s-4-7-4-15z"/>
<path d="m631 484 1-19 5 13c3 7 2 16-1 19-3 4-6-2-5-13z"/>
<path d="m630 400c0-7 3-10 7-7 3 4 3 10 0 14-4 3-7 0-7-7z"/>
<path d="m158 373c7-3 16-2 19 1 4 3-2 6-13 5l-19-1 13-5z"/>
<path d="m64 288-7-11 11 7c12 7 16 16 8 16-3 0-8-5-12-12z"/>
<path d="m513 283c4-3 10-3 14 0 3 4 0 7-7 7s-10-3-7-7z"/>
<path d="m282 220c0-19 2-27 5-17 2 9 2 25 0 35-3 9-5 1-5-18z"/>
<path d="m458 223c7-3 16-2 19 1 4 3-2 6-13 5l-19-1 13-5z"/>
<path d="m51 184 1-19 5 13c3 7 2 16-1 19-3 4-6-2-5-13z"/>
<path d="m241 144 1-19 5 13c3 7 2 16-1 19-3 4-6-2-5-13z"/>
<path d="m150 60c0-5 5-10 11-10 5 0 7 5 4 10-3 6-8 10-11 10-2 0-4-4-4-10z"/>
<path d="m266 53-7-18 12 12c7 7 10 15 7 18s-9-2-12-12z"/>
<path d="m463 43c9-2 23-2 30 0 6 3-1 5-18 5h-30l18-5z"/>
</g>
<g transform="translate(0 68) scale(.1 -.1)" fill="#dfdfdf">
<path d="m267 620c4-4 19-11 32-15l24-7-7 10c-3 5-17 12-32 15-14 2-22 1-17-3z"/>
<path d="m135 600c-3-5-2-10 4-10 5 0 13 5 16 10 3 6 2 10-4 10-5 0-13-4-16-10z"/>
<path d="m360 560c0-5 5-10 11-10 5 0 7 5 4 10-3 6-8 10-11 10-2 0-4-4-4-10z"/>
<path d="m67 543c-4-3-7-11-7-17v-10l12 12c6 6 9 14 7 17-3 3-9 2-12-2z"/>
<path d="m456 433-7-18 12 12c7 7 10 15 7 18s-9-2-12-12z"/>
<path d="m50 430c0-7 3-10 7-7 3 4 3 10 0 14-4 3-7 0-7-7z"/>
<path d="m135 430-6-10 15 6c18 7 21 14 7 14-6 0-13-4-16-10z"/>
<path d="m630 430c0-7 3-10 7-7 3 4 3 10 0 14-4 3-7 0-7-7z"/>
<path d="m75 410-6-10 15 6c18 7 21 14 7 14-6 0-13-4-16-10z"/>
<path d="m345 250c3-5 11-10 16-10 6 0 7 5 4 10-3 6-11 10-16 10-6 0-7-4-4-10z"/>
<path d="m565 250c-3-5-2-10 4-10 5 0 13 5 16 10 3 6 2 10-4 10-5 0-13-4-16-10z"/>
<path d="m427 229c7-7 15-10 18-7s-2 9-12 12l-18 7 12-12z"/>
<path d="m490 230-15-10h12c6 0 15 5 18 10 8 12 4 12-15 0z"/>
<path d="m230 210c0-7 3-10 7-7 3 4 3 10 0 14-4 3-7 0-7-7z"/>
<path d="m286 187c3-10 9-15 12-12s0 11-7 18l-12 12 7-18z"/>
<path d="m240 131c0-5 5-13 10-16 6-3 10-2 10 4 0 5-4 13-10 16-5 3-10 2-10-4z"/>
<path d="m330 111c0-5 5-13 10-16 6-3 10-2 10 4 0 5-4 13-10 16-5 3-10 2-10-4z"/>
<path d="m115 80c3-5 11-10 16-10 6 0 7 5 4 10-3 6-11 10-16 10-6 0-7-4-4-10z"/>
<path d="m564 78-7-11 11 7c7 4 12 9 12 12 0 8-9 4-16-8z"/>
<path d="m213 43c4-3 10-3 14 0 3 4 0 7-7 7s-10-3-7-7z"/>
</g>
<g transform="translate(0 68) scale(.1 -.1)" fill="#9c9c9c">
<path d="m173 613c4-3 10-3 14 0 3 4 0 7-7 7s-10-3-7-7z"/>
<path d="m283 613c4-3 10-3 14 0 3 4 0 7-7 7s-10-3-7-7z"/>
<path d="m420 580c0-7 3-10 7-7 3 4 3 10 0 14-4 3-7 0-7-7z"/>
<path d="m380 520c0-7 3-10 7-7 3 4 3 10 0 14-4 3-7 0-7-7z"/>
<path d="m446 507c3-10 9-15 12-12s0 11-7 18l-12 12 7-18z"/>
<path d="m115 420-6-10 15 6c18 7 21 14 7 14-6 0-13-4-16-10z"/>
<path d="m330 418c3-3 20-13 38-22l32-17v14c0 7-8 13-17 13-10 1-27 5-38 9-11 5-18 6-15 3z"/>
<path d="m208 383c7-3 16-2 19 1 4 3-2 6-13 5l-19-1 13-5z"/>
<path d="m609 363-14-18 18 14c9 7 17 15 17 17 0 8-8 3-21-13z"/>
<path d="m265 339c-4-6-5-12-2-15 2-3 7 2 10 11 7 17 1 20-8 4z"/>
<path d="m608 263c7-3 16-2 19 1 4 3-2 6-13 5l-19-1 13-5z"/>
<path d="m51 244 1-19 5 13c3 7 2 16-1 19-3 4-6-2-5-13z"/>
<path d="m393 233c4-3 10-3 14 0 3 4 0 7-7 7s-10-3-7-7z"/>
<path d="m523 233c4-3 10-3 14 0 3 4 0 7-7 7s-10-3-7-7z"/>
<path d="m620 150c0-7 3-10 7-7 3 4 3 10 0 14-4 3-7 0-7-7z"/>
<path d="m76 127c3-10 9-15 12-12s0 11-7 18l-12 12 7-18z"/>
<path d="m316 125c4-8 11-15 16-15h10l-12 15c-7 8-14 15-16 15s-1-7 2-15z"/>
<path d="m360 86c0-2 8-10 18-17l17-14-14 18c-13 16-21 21-21 13z"/>
<path d="m248 43c7-3 16-2 19 1 4 3-2 6-13 5l-19-1 13-5z"/>
</g>
<g transform="translate(0 68) scale(.1 -.1)" fill="#343434">
<path d="m164 608-7-11 11 7c12 7 16 16 8 16-3 0-8-5-12-12z"/>
<path d="m586 575c4-8 11-15 16-15h10l-12 15c-7 8-14 15-16 15s-1-7 2-15z"/>
<path d="m430 551c0-6 4-13 10-16l10-6-6 15c-7 18-14 21-14 7z"/>
<path d="m391 484 1-19 5 13c3 7 2 16-1 19-3 4-6-2-5-13z"/>
<path d="m325 420c3-5 8-10 11-10s2 5-1 10c-3 6-8 10-11 10s-2-4 1-10z"/>
<path d="m63 403c4-3 10-3 14 0 3 4 0 7-7 7s-10-3-7-7z"/>
<path d="m373 393c4-3 10-3 14 0 3 4 0 7-7 7s-10-3-7-7z"/>
<path d="m125 360-6-10 15 6c18 7 21 14 7 14-6 0-13-4-16-10z"/>
<path d="m415 329c-4-6-5-12-2-15 2-3 7 2 10 11 7 17 1 20-8 4z"/>
<path d="m254 318-7-11 11 7c12 7 16 16 8 16-3 0-8-5-12-12z"/>
<path d="m544 298-7-11 11 7c7 4 12 9 12 12 0 8-9 4-16-8z"/>
<path d="m417 289c7-7 15-10 18-7s-2 9-12 12l-18 7 12-12z"/>
<path d="m55 170c3-5 8-10 11-10s2 5-1 10c-3 6-8 10-11 10s-2-4 1-10z"/>
<path d="m241 164 1-19 5 13c3 7 2 16-1 19-3 4-6-2-5-13z"/>
<path d="m290 171c0-6 4-13 10-16l10-6-6 15c-7 18-14 21-14 7z"/>
<path d="m90 106c0-2 8-10 18-17l17-14-14 18c-13 16-21 21-21 13z"/>
<path d="m493 43c4-3 10-3 14 0 3 4 0 7-7 7s-10-3-7-7z"/>
</g>
<g transform="translate(0 68) scale(.1 -.1)" fill="#4b4b4b">
<path d="m208 623c7-3 16-2 19 1 4 3-2 6-13 5l-19-1 13-5z"/>
<path d="m488 623c7-3 16-2 19 1 4 3-2 6-13 5l-19-1 13-5z"/>
<path d="m300 616c0-2 8-10 18-17l17-14-14 18c-13 16-21 21-21 13z"/>
<path d="m425 570c3-5 8-10 11-10s2 5-1 10c-3 6-8 10-11 10s-2-4 1-10z"/>
<path d="m288 433c7-3 16-2 19 1 4 3-2 6-13 5l-19-1 13-5z"/>
<path d="m448 405c-3-11-9-29-13-40-3-11 1-7 10 8 9 16 15 33 12 40l-3 11-6-19z"/>
<path d="m620 380c0-7 3-10 7-7 3 4 3 10 0 14-4 3-7 0-7-7z"/>
<path d="m75 309c-4-6-5-12-2-15 2-3 7 2 10 11 7 17 1 20-8 4z"/>
<path d="m241 264 1-19 5 13c3 7 2 16-1 19-3 4-6-2-5-13z"/>
<path d="m363 243c4-3 10-3 14 0 3 4 0 7-7 7s-10-3-7-7z"/>
<path d="m553 243c4-3 10-3 14 0 3 4 0 7-7 7s-10-3-7-7z"/>
<path d="m614 138-7-11 11 7c7 4 12 9 12 12 0 8-9 4-16-8z"/>
<path d="m390 60c8-5 20-10 25-10 6 0 3 5-5 10s-19 10-25 10c-5 0-3-5 5-10z"/>
<path d="m433 43c4-3 10-3 14 0 3 4 0 7-7 7s-10-3-7-7z"/>
</g>
<g transform="translate(0 68) scale(.1 -.1)" fill="#d3d3d3">
<path d="m570 590c0-5 5-10 11-10 5 0 7 5 4 10-3 6-8 10-11 10-2 0-4-4-4-10z"/>
<path d="m430 560c0-7 3-10 7-7 3 4 3 10 0 14-4 3-7 0-7-7z"/>
<path d="m593 563c4-3 10-3 14 0 3 4 0 7-7 7s-10-3-7-7z"/>
<path d="m615 530c3-5 8-10 11-10 2 0 4 5 4 10 0 6-5 10-11 10-5 0-7-4-4-10z"/>
<path d="m460 450c0-7 3-10 7-7 3 4 3 10 0 14-4 3-7 0-7-7z"/>
<path d="m260 446c0-2 7-7 16-10l15-6-6 10c-6 10-25 14-25 6z"/>
<path d="m50 420c0-7 3-10 7-7 3 4 3 10 0 14-4 3-7 0-7-7z"/>
<path d="m594 348-7-11 11 7c12 7 16 16 8 16-3 0-8-5-12-12z"/>
<path d="m564 318-7-11 11 7c12 7 16 16 8 16-3 0-8-5-12-12z"/>
<path d="m286 254-6-17 15 13c17 14 19 20 6 20-5 0-12-7-15-16z"/>
<path d="m327 259c7-7 15-10 18-7s-2 9-12 12l-18 7 12-12z"/>
<path d="m230 220c0-7 3-10 7-7 3 4 3 10 0 14-4 3-7 0-7-7z"/>
<path d="m325 110c3-5 8-10 11-10 2 0 4 5 4 10 0 6-5 10-11 10-5 0-7-4-4-10z"/>
<path d="m597 113c-4-3-7-11-7-17v-10l12 12c6 6 9 14 7 17-3 3-9 2-12-2z"/>
<path d="m145 60c3-5 8-10 11-10 2 0 4 5 4 10 0 6-5 10-11 10-5 0-7-4-4-10z"/>
<path d="m535 60c-3-5-2-10 4-10 5 0 13 5 16 10 3 6 2 10-4 10-5 0-13-4-16-10z"/>
</g>
<g transform="translate(0 68) scale(.1 -.1)" fill="#404040">
<path d="m355 570c10-11 20-20 23-20s-3 9-13 20-20 20-23 20 3-9 13-20z"/>
<path d="m630 500c0-7 3-10 7-7 3 4 3 10 0 14-4 3-7 0-7-7z"/>
<path d="m450 490c0-7 3-10 7-7 3 4 3 10 0 14-4 3-7 0-7-7z"/>
<path d="m208 443c12-2 30-2 40 0 9 3-1 5-23 4h-40l23-4z"/>
<path d="m307 429c7-7 15-10 18-7s-2 9-12 12l-18 7 12-12z"/>
<path d="m385 390c3-5 8-10 11-10s2 5-1 10c-3 6-8 10-11 10s-2-4 1-10z"/>
<path d="m624 388-7-11 11 7c12 7 16 16 8 16-3 0-8-5-12-12z"/>
<path d="m270 350c0-7 3-10 7-7 3 4 3 10 0 14-4 3-7 0-7-7z"/>
<path d="m425 349c-4-6-5-12-2-15 2-3 7 2 10 11 7 17 1 20-8 4z"/>
<path d="m631 184 1-19 5 13c3 7 2 16-1 19-3 4-6-2-5-13z"/>
<path d="m270 70c0-7 3-10 7-7 3 4 3 10 0 14-4 3-7 0-7-7z"/>
</g>
<g transform="translate(0 68) scale(.1 -.1)" fill="#0a0a0a">
<path d="m505 620c3-5 8-10 11-10s2 5-1 10c-3 6-8 10-11 10s-2-4 1-10z"/>
<path d="m575 590c3-5 8-10 11-10s2 5-1 10c-3 6-8 10-11 10s-2-4 1-10z"/>
<path d="m333 583c4-3 10-3 14 0 3 4 0 7-7 7s-10-3-7-7z"/>
<path d="m605 560c3-5 8-10 11-10s2 5-1 10c-3 6-8 10-11 10s-2-4 1-10z"/>
<path d="m620 530c0-7 3-10 7-7 3 4 3 10 0 14-4 3-7 0-7-7z"/>
<path d="m440 520c0-7 3-10 7-7 3 4 3 10 0 14-4 3-7 0-7-7z"/>
<path d="m450 480c0-7 3-10 7-7 3 4 3 10 0 14-4 3-7 0-7-7z"/>
<path d="m163 433c4-3 10-3 14 0 3 4 0 7-7 7s-10-3-7-7z"/>
<path d="m450 420c0-7 3-10 7-7 3 4 3 10 0 14-4 3-7 0-7-7z"/>
<path d="m50 410c0-5 5-10 11-10 5 0 7 5 4 10-3 6-8 10-11 10-2 0-4-4-4-10z"/>
<path d="m103 413c4-3 10-3 14 0 3 4 0 7-7 7s-10-3-7-7z"/>
<path d="m240 250c0-7 3-10 7-7 3 4 3 10 0 14-4 3-7 0-7-7z"/>
<path d="m413 233c4-3 10-3 14 0 3 4 0 7-7 7s-10-3-7-7z"/>
<path d="m503 233c4-3 10-3 14 0 3 4 0 7-7 7s-10-3-7-7z"/>
<path d="m240 180c0-7 3-10 7-7 3 4 3 10 0 14-4 3-7 0-7-7z"/>
<path d="m85 110c3-5 8-10 11-10s2 5-1 10c-3 6-8 10-11 10s-2-4 1-10z"/>
<path d="m335 100c3-5 8-10 11-10s2 5-1 10c-3 6-8 10-11 10s-2-4 1-10z"/>
<path d="m594 98-7-11 11 7c7 4 12 9 12 12 0 8-9 4-16-8z"/>
<path d="m145 60c3-5 8-10 11-10s2 5-1 10c-3 6-8 10-11 10s-2-4 1-10z"/>
</g>
<g transform="translate(0 68) scale(.1 -.1)" fill="#252525">
<path d="m410 620c0-7 3-10 7-7 3 4 3 10 0 14-4 3-7 0-7-7z"/>
<path d="m530 610c8-5 20-10 25-10 6 0 3 5-5 10s-19 10-25 10c-5 0-3-5 5-10z"/>
<path d="m105 580-6-10 15 6c18 7 21 14 7 14-6 0-13-4-16-10z"/>
<path d="m175 380-6-10 15 6c18 7 21 14 7 14-6 0-13-4-16-10z"/>
<path d="m280 379c0-5 5-7 10-4 6 3 10 8 10 11 0 2-4 4-10 4-5 0-10-5-10-11z"/>
<path d="m144 368-7-11 11 7c7 4 12 9 12 12 0 8-9 4-16-8z"/>
<path d="m50 260c0-7 3-10 7-7 3 4 3 10 0 14-4 3-7 0-7-7z"/>
<path d="m403 233c4-3 10-3 14 0 3 4 0 7-7 7s-10-3-7-7z"/>
<path d="m513 233c4-3 10-3 14 0 3 4 0 7-7 7s-10-3-7-7z"/>
<path d="m300 151c0-6 4-13 10-16l10-6-6 15c-7 18-14 21-14 7z"/>
<path d="m325 110c3-5 8-10 11-10s2 5-1 10c-3 6-8 10-11 10s-2-4 1-10z"/>
<path d="m600 110c0-7 3-10 7-7 3 4 3 10 0 14-4 3-7 0-7-7z"/>
<path d="m115 80c3-5 8-10 11-10s2 5-1 10c-3 6-8 10-11 10s-2-4 1-10z"/>
</g>
<g transform="translate(0 68) scale(.1 -.1)" fill="#c6c6c6">
<path d="m153 603c4-3 10-3 14 0 3 4 0 7-7 7s-10-3-7-7z"/>
<path d="m325 590c3-5 8-10 11-10s2 5-1 10c-3 6-8 10-11 10s-2-4 1-10z"/>
<path d="m56 513-7-18 12 12c7 7 10 15 7 18s-9-2-12-12z"/>
<path d="m630 470c0-7 3-10 7-7 3 4 3 10 0 14-4 3-7 0-7-7z"/>
<path d="m281 374 1-19 5 13c3 7 2 16-1 19-3 4-6-2-5-13z"/>
<path d="m590 260-15-10h12c6 0 15 5 18 10 8 12 4 12-15 0z"/>
<path d="m443 223c4-3 10-3 14 0 3 4 0 7-7 7s-10-3-7-7z"/>
<path d="m473 223c4-3 10-3 14 0 3 4 0 7-7 7s-10-3-7-7z"/>
<path d="m50 200c0-7 3-10 7-7 3 4 3 10 0 14-4 3-7 0-7-7z"/>
<path d="m610 130c0-7 3-10 7-7 3 4 3 10 0 14-4 3-7 0-7-7z"/>
<path d="m250 111c0-6 4-13 10-16l10-6-6 15c-7 18-14 21-14 7z"/>
</g>
<g transform="translate(0 68) scale(.1 -.1)" fill="#161616">
<path d="m293 613c4-3 10-3 14 0 3 4 0 7-7 7s-10-3-7-7z"/>
<path d="m135 600-6-10 15 6c18 7 21 14 7 14-6 0-13-4-16-10z"/>
<path d="m65 539c-4-6-5-12-2-15 2-3 7 2 10 11 7 17 1 20-8 4z"/>
<path d="m380 530c0-7 3-10 7-7 3 4 3 10 0 14-4 3-7 0-7-7z"/>
<path d="m625 260c3-5 8-10 11-10 2 0 4 5 4 10 0 6-5 10-11 10-5 0-7-4-4-10z"/>
<path d="m340 256c0-2 7-7 16-10l15-6-6 10c-6 10-25 14-25 6z"/>
<path d="m565 250-6-10 15 6c18 7 21 14 7 14-6 0-13-4-16-10z"/>
<path d="m246 127c3-10 9-15 12-12s0 11-7 18l-12 12 7-18z"/>
<path d="m123 73c4-3 10-3 14 0 3 4 0 7-7 7s-10-3-7-7z"/>
<path d="m540 60-15-10h12c6 0 15 5 18 10 8 12 4 12-15 0z"/>
<path d="m183 43c4-3 10-3 14 0 3 4 0 7-7 7s-10-3-7-7z"/>
</g>
<g transform="translate(0 68) scale(.1 -.1)" fill="#acacac">
<path d="m410 610c0-7 3-10 7-7 3 4 3 10 0 14-4 3-7 0-7-7z"/>
<path d="m124 588-7-11 11 7c12 7 16 16 8 16-3 0-8-5-12-12z"/>
<path d="m390 430c0-7 3-10 7-7 3 4 3 10 0 14-4 3-7 0-7-7z"/>
<path d="m55 410c3-5 8-10 11-10s2 5-1 10c-3 6-8 10-11 10s-2-4 1-10z"/>
<path d="m84 318-7-11 11 7c12 7 16 16 8 16-3 0-8-5-12-12z"/>
<path d="m250 310c0-7 3-10 7-7 3 4 3 10 0 14-4 3-7 0-7-7z"/>
<path d="m625 260c3-5 8-10 11-10s2 5-1 10c-3 6-8 10-11 10s-2-4 1-10z"/>
<path d="m135 70c3-5 8-10 11-10s2 5-1 10c-3 6-8 10-11 10s-2-4 1-10z"/>
<path d="m554 68-7-11 11 7c12 7 16 16 8 16-3 0-8-5-12-12z"/>
<path d="m523 53c4-3 10-3 14 0 3 4 0 7-7 7s-10-3-7-7z"/>
</g>
<g transform="translate(0 68) scale(.1 -.1)" fill="#b3b3b3">
<path d="m513 613c4-3 10-3 14 0 3 4 0 7-7 7s-10-3-7-7z"/>
<path d="m440 530c0-7 3-10 7-7 3 4 3 10 0 14-4 3-7 0-7-7z"/>
<path d="m384 398-7-11 11 7c7 4 12 9 12 12 0 8-9 4-16-8z"/>
<path d="m274 358-7-11 11 7c7 4 12 9 12 12 0 8-9 4-16-8z"/>
<path d="m411 304 1-19 5 13c3 7 2 16-1 19-3 4-6-2-5-13z"/>
<path d="m453 283c4-3 10-3 14 0 3 4 0 7-7 7s-10-3-7-7z"/>
<path d="m298 263c7-3 16-2 19 1 4 3-2 6-13 5l-19-1 13-5z"/>
<path d="m630 230c0-7 3-10 7-7 3 4 3 10 0 14-4 3-7 0-7-7z"/>
<path d="m60 160c0-7 3-10 7-7 3 4 3 10 0 14-4 3-7 0-7-7z"/>
<path d="m604 118-7-11 11 7c7 4 12 9 12 12 0 8-9 4-16-8z"/>
<path d="m203 43c4-3 10-3 14 0 3 4 0 7-7 7s-10-3-7-7z"/>
</g>
<g transform="translate(0 68) scale(.1 -.1)" fill="#6b6b6b">
<path d="m228 623c7-3 16-2 19 1 4 3-2 6-13 5l-19-1 13-5z"/>
<path d="m84 558-19-23 23 19c21 18 27 26 19 26-2 0-12-10-23-22z"/>
<path d="m253 443c4-3 10-3 14 0 3 4 0 7-7 7s-10-3-7-7z"/>
<path d="m193 383c4-3 10-3 14 0 3 4 0 7-7 7s-10-3-7-7z"/>
<path d="m240 280c0-7 3-10 7-7 3 4 3 10 0 14-4 3-7 0-7-7z"/>
</g>
<g transform="translate(0 68) scale(.1 -.1)" fill="#5b5b5b">
<path d="m390 470c0-7 3-10 7-7 3 4 3 10 0 14-4 3-7 0-7-7z"/>
<path d="m93 413c4-3 10-3 14 0 3 4 0 7-7 7s-10-3-7-7z"/>
<path d="m313 263c4-3 10-3 14 0 3 4 0 7-7 7s-10-3-7-7z"/>
<path d="m193 43c4-3 10-3 14 0 3 4 0 7-7 7s-10-3-7-7z"/>
<path d="m443 43c4-3 10-3 14 0 3 4 0 7-7 7s-10-3-7-7z"/>
</g>
<g transform="translate(0 68) scale(.1 -.1)" fill="#a2a2a2">
<path d="m463 623c4-3 10-3 14 0 3 4 0 7-7 7s-10-3-7-7z"/>
<path d="m50 490c0-7 3-10 7-7 3 4 3 10 0 14-4 3-7 0-7-7z"/>
<path d="m390 440c0-7 3-10 7-7 3 4 3 10 0 14-4 3-7 0-7-7z"/>
<path d="m554 308-7-11 11 7c12 7 16 16 8 16-3 0-8-5-12-12z"/>
<path d="m443 283c4-3 10-3 14 0 3 4 0 7-7 7s-10-3-7-7z"/>
<path d="m630 220c0-7 3-10 7-7 3 4 3 10 0 14-4 3-7 0-7-7z"/>
</g>
<g transform="translate(0 68) scale(.1 -.1)" fill="#929292">
<path d="m390 450c0-7 3-10 7-7 3 4 3 10 0 14-4 3-7 0-7-7z"/>
<path d="m153 433c4-3 10-3 14 0 3 4 0 7-7 7s-10-3-7-7z"/>
<path d="m433 283c4-3 10-3 14 0 3 4 0 7-7 7s-10-3-7-7z"/>
<path d="m630 210c0-7 3-10 7-7 3 4 3 10 0 14-4 3-7 0-7-7z"/>
</g>
<g transform="translate(0 68) scale(.1 -.1)" fill="#626262">
<path d="m473 623c4-3 10-3 14 0 3 4 0 7-7 7s-10-3-7-7z"/>
<path d="m114 348-7-11 11 7c7 4 12 9 12 12 0 8-9 4-16-8z"/>
<path d="m630 200c0-7 3-10 7-7 3 4 3 10 0 14-4 3-7 0-7-7z"/>
</g>
<g transform="translate(0 68) scale(.1 -.1)" fill="#747474">
<path d="m390 460c0-7 3-10 7-7 3 4 3 10 0 14-4 3-7 0-7-7z"/>
</g>
<g transform="translate(0 68) scale(.1 -.1)" fill="#878787">
<path d="m50 500c0-7 3-10 7-7 3 4 3 10 0 14-4 3-7 0-7-7z"/>
</g>
</svg>
